<?xml version="1.0" encoding="UTF-8"?>
<svg id="Layer_1" data-name="Layer 1" xmlns="http://www.w3.org/2000/svg" viewBox="0 0 1050 88.52">
  <defs>
    <style>
      .cls-1 {
        fill: #95cfe9;
      }

      .cls-2 {
        fill: #2889b6;
      }
    </style>
  </defs>
  <path class="cls-1" d="m0,0v22.53c51.25,0,97.65,7.85,131.25,20.55,33.6,12.7,80,20.55,131.25,20.55s97.65-7.85,131.25-20.55c33.6-12.7,80-20.55,131.25-20.55s97.65,7.85,131.25,20.55c33.6,12.7,80,20.55,131.25,20.55s97.65-7.85,131.25-20.55c33.6-12.7,80-20.55,131.25-20.55V0H0Z"/>
  <path class="cls-2" d="m787.5,63.63c-51.25,0-97.65-7.85-131.25-20.55-33.6-12.7-80-20.55-131.25-20.55s-97.65,7.85-131.25,20.55c-33.6,12.7-80,20.55-131.25,20.55s-97.65-7.85-131.25-20.55C97.65,30.38,51.25,22.53,0,22.53v65.99h1050V22.53c-51.25,0-97.65,7.85-131.25,20.55-33.6,12.7-80,20.55-131.25,20.55Z"/>
</svg>